<?xml version="1.0" encoding="utf-8"?>
<!-- Generator: Adobe Illustrator 17.0.0, SVG Export Plug-In . SVG Version: 6.00 Build 0)  -->
<!DOCTYPE svg PUBLIC "-//W3C//DTD SVG 1.1//EN" "http://www.w3.org/Graphics/SVG/1.1/DTD/svg11.dtd">
<svg version="1.1" id="Layer_1" xmlns="http://www.w3.org/2000/svg" xmlns:xlink="http://www.w3.org/1999/xlink" x="0px" y="0px"
	 width="21px" height="18px" viewBox="0 0 21 18" enable-background="new 0 0 21 18" xml:space="preserve">
<g>
	<linearGradient id="SVGID_1_" gradientUnits="userSpaceOnUse" x1="8" y1="18" x2="8" y2="1">
		<stop  offset="0" style="stop-color:#333333"/>
		<stop  offset="1" style="stop-color:#000000"/>
	</linearGradient>
	<path fill="url(#SVGID_1_)" d="M16,15c0,1.65-1.35,3-3,3H3c-1.65,0-3-1.35-3-3V4c0-1.65,1.35-3,3-3h10c1.65,0,3,1.35,3,3V15z"/>
</g>
<path fill="#D2D2D2" d="M9.08,14.432L3.591,8.943c-0.586-0.586-0.586-1.535,0-2.121c0.585-0.586,1.535-0.586,2.121,0l3.368,3.367
	l8.875-8.875c0.586-0.586,1.535-0.586,2.121,0c0.586,0.586,0.586,1.535,0,2.121L9.08,14.432z"/>
</svg>
